<svg id="visual" viewBox="0 0 960 150" width="960" height="150" xmlns="http://www.w3.org/2000/svg" xmlns:xlink="http://www.w3.org/1999/xlink" version="1.1"><path d="M0 9L14.5 10.7C29 12.3 58 15.7 87.2 19.3C116.3 23 145.7 27 174.8 29.3C204 31.7 233 32.3 262 29.8C291 27.3 320 21.7 349 21.7C378 21.7 407 27.3 436.2 27.7C465.3 28 494.7 23 523.8 24C553 25 582 32 611 30.5C640 29 669 19 698 17.5C727 16 756 23 785.2 24.5C814.3 26 843.7 22 872.8 20.7C902 19.3 931 20.7 945.5 21.3L960 22L960 0L945.5 0C931 0 902 0 872.8 0C843.7 0 814.3 0 785.2 0C756 0 727 0 698 0C669 0 640 0 611 0C582 0 553 0 523.8 0C494.7 0 465.3 0 436.2 0C407 0 378 0 349 0C320 0 291 0 262 0C233 0 204 0 174.8 0C145.7 0 116.3 0 87.2 0C58 0 29 0 14.5 0L0 0Z" fill="#f6ede0"></path><path d="M0 25L14.5 32.8C29 40.7 58 56.3 87.2 67.2C116.3 78 145.7 84 174.8 81C204 78 233 66 262 62C291 58 320 62 349 69C378 76 407 86 436.2 80.5C465.3 75 494.7 54 523.8 48C553 42 582 51 611 55.2C640 59.3 669 58.7 698 66.7C727 74.7 756 91.3 785.2 97.3C814.3 103.3 843.7 98.7 872.8 100.3C902 102 931 110 945.5 114L960 118L960 20L945.5 19.3C931 18.7 902 17.3 872.8 18.7C843.7 20 814.3 24 785.2 22.5C756 21 727 14 698 15.5C669 17 640 27 611 28.5C582 30 553 23 523.8 22C494.7 21 465.3 26 436.2 25.7C407 25.3 378 19.7 349 19.7C320 19.7 291 25.3 262 27.8C233 30.3 204 29.7 174.8 27.3C145.7 25 116.3 21 87.2 17.3C58 13.7 29 10.3 14.5 8.7L0 7Z" fill="#c5c1af"></path><path d="M0 108L14.5 108C29 108 58 108 87.2 109.5C116.3 111 145.7 114 174.8 117.5C204 121 233 125 262 119.5C291 114 320 99 349 100.5C378 102 407 120 436.2 123.3C465.3 126.7 494.7 115.3 523.8 110.5C553 105.7 582 107.3 611 107.3C640 107.3 669 105.7 698 109.2C727 112.7 756 121.3 785.2 126.5C814.3 131.7 843.7 133.3 872.8 133.7C902 134 931 133 945.5 132.5L960 132L960 116L945.5 112C931 108 902 100 872.8 98.3C843.7 96.7 814.3 101.3 785.2 95.3C756 89.3 727 72.7 698 64.7C669 56.7 640 57.3 611 53.2C582 49 553 40 523.8 46C494.7 52 465.3 73 436.2 78.5C407 84 378 74 349 67C320 60 291 56 262 60C233 64 204 76 174.8 79C145.7 82 116.3 76 87.2 65.2C58 54.3 29 38.7 14.5 30.8L0 23Z" fill="#939783"></path><path d="M0 148L14.5 143.5C29 139 58 130 87.2 128.8C116.3 127.7 145.7 134.3 174.8 137.3C204 140.3 233 139.7 262 136.7C291 133.7 320 128.3 349 129.3C378 130.3 407 137.7 436.2 139.2C465.3 140.7 494.7 136.3 523.8 136.7C553 137 582 142 611 140.5C640 139 669 131 698 130.5C727 130 756 137 785.2 140.7C814.3 144.3 843.7 144.7 872.8 144.2C902 143.7 931 142.3 945.5 141.7L960 141L960 130L945.5 130.5C931 131 902 132 872.8 131.7C843.7 131.3 814.3 129.7 785.2 124.5C756 119.3 727 110.7 698 107.2C669 103.7 640 105.3 611 105.3C582 105.3 553 103.7 523.8 108.5C494.7 113.3 465.3 124.7 436.2 121.3C407 118 378 100 349 98.5C320 97 291 112 262 117.5C233 123 204 119 174.8 115.5C145.7 112 116.3 109 87.2 107.5C58 106 29 106 14.5 106L0 106Z" fill="#626f5b"></path><path d="M0 151L14.5 151C29 151 58 151 87.2 151C116.3 151 145.7 151 174.8 151C204 151 233 151 262 151C291 151 320 151 349 151C378 151 407 151 436.2 151C465.3 151 494.7 151 523.8 151C553 151 582 151 611 151C640 151 669 151 698 151C727 151 756 151 785.2 151C814.3 151 843.7 151 872.8 151C902 151 931 151 945.5 151L960 151L960 139L945.5 139.7C931 140.3 902 141.7 872.8 142.2C843.7 142.7 814.3 142.3 785.2 138.7C756 135 727 128 698 128.5C669 129 640 137 611 138.5C582 140 553 135 523.8 134.7C494.7 134.3 465.3 138.7 436.2 137.2C407 135.7 378 128.3 349 127.3C320 126.3 291 131.7 262 134.7C233 137.7 204 138.3 174.8 135.3C145.7 132.3 116.3 125.7 87.2 126.8C58 128 29 137 14.5 141.5L0 146Z" fill="#334a38"></path></svg>